<?xml version="1.0" encoding="UTF-8" standalone="no"?>
<!DOCTYPE svg PUBLIC "-//W3C//DTD SVG 1.1//EN" "http://www.w3.org/Graphics/SVG/1.1/DTD/svg11.dtd">
<svg width="100%" height="100%" viewBox="0 0 512 512" version="1.1" xmlns="http://www.w3.org/2000/svg" xmlns:xlink="http://www.w3.org/1999/xlink" xml:space="preserve" xmlns:serif="http://www.serif.com/" style="fill-rule:evenodd;clip-rule:evenodd;stroke-linejoin:round;stroke-miterlimit:2;">
    <rect id="Artboard1" x="0" y="0" width="512" height="512" style="fill:none;"/>
    <g id="Artboard11" serif:id="Artboard1">
        <g id="Layer1">
            <path d="M260.463,8.439C257.653,7.037 254.347,7.037 251.537,8.439L33.608,117.129C30.216,118.822 28.071,122.287 28.071,126.078L28.071,392.459C28.071,396.264 30.23,399.739 33.641,401.424L251.57,509.115C254.362,510.495 257.638,510.495 260.43,509.115L478.359,401.424C481.77,399.739 483.929,396.264 483.929,392.459L483.929,126.078C483.929,122.287 481.784,118.822 478.392,117.129L260.463,8.439ZM463.929,164.963L460.888,166.577L460.888,182.751L433.534,196.154L433.534,179.981L420.144,186.682L420.144,202.815L406.124,210.155L406.124,226.169L392.233,233.459L392.233,216.893L379.024,223.636L379.024,240.076L365.506,247.772L365.506,214.294L352.356,220.627L352.356,237.074L337.778,244.321L337.778,210.592L324.751,217.643L324.751,267.23L310.644,274.819L310.644,258.193L283.848,271.313L283.848,255.244L270.375,261.636L270.375,278.096L256.408,284.238L256.408,268.91L242.623,261.563L242.623,277.94L215.438,264.281L215.438,249.294L201.585,240.884L201.585,257.94L188.607,251.316L188.607,267.546L174.444,260.25L174.444,243.87L161.378,238.031L161.378,254.105L146.799,246.761L146.799,214.452L133.49,206.841L133.49,223.022L120.193,216.799L120.193,183.922L106.662,177.092L106.662,226.651L92.518,219.805L92.518,203.468L65.627,190.178L65.627,172.871L52.044,166.066L52.044,182.086L48.071,179.815L48.071,386.246L256,488.995L463.929,386.246L463.929,164.963Z" style="fill:white;"/>
        </g>
    </g>
</svg>
